<svg fill="#000000" xmlns="http://www.w3.org/2000/svg"  viewBox="0 0 50 50" width="50px" height="50px"><path d="M 8.15625 2 C 6.4258124 2 5.0347298 3.4986867 5.1640625 5.2246094 L 8.0019531 43.074219 A 1.0001 1.0001 0 0 0 9 44 L 21.5 44 L 24.199219 47.599609 A 1.0001 1.0001 0 0 0 25.800781 47.599609 L 28.5 44 L 41 44 A 1.0001 1.0001 0 0 0 41.998047 43.074219 L 44.835938 5.2246094 C 44.965228 3.4992561 43.576141 2 41.845703 2 L 8.15625 2 z M 8.15625 4 L 41.845703 4 C 42.443266 4 42.886507 4.4795251 42.841797 5.0761719 L 40.748047 33 L 37.175781 33 A 1.0001 1.0001 0 0 0 36.847656 33 L 25.142578 33 A 1.0001 1.0001 0 0 0 25.089844 32.994141 A 1.0001 1.0001 0 0 0 25 32.990234 A 1.0001 1.0001 0 0 0 24.970703 32.990234 A 1.0001 1.0001 0 0 0 24.859375 33 L 13.117188 33 A 1.0001 1.0001 0 0 0 12.990234 32.990234 A 1.0001 1.0001 0 0 0 12.861328 33 L 9.2519531 33 L 7.1582031 5.0761719 C 7.1135358 4.4800946 7.5586876 4 8.15625 4 z M 19 7 C 15.145666 7 12 10.145666 12 14 C 12 17.854334 15.145666 21 19 21 C 19.718094 21 20.409546 20.884064 21.064453 20.681641 C 21.195723 21.438471 21.534813 22.128753 22.027344 22.675781 A 1.0001 1.0001 0 1 0 23.513672 21.337891 C 23.19303 20.981771 23 20.520705 23 20 C 23 19.799601 23.038655 19.6113 23.091797 19.429688 A 1.0001 1.0001 0 0 0 23.097656 19.40625 C 23.347871 18.588007 24.092277 18 25 18 C 25.187942 18 25.365485 18.033133 25.537109 18.080078 A 1.0001 1.0001 0 0 0 25.667969 18.121094 C 26.226236 18.31591 26.662529 18.743581 26.867188 19.296875 A 1.0001 1.0001 0 0 0 26.929688 19.5 C 26.970288 19.660511 27 19.825636 27 20 C 27 20.518918 26.807211 20.979692 26.488281 21.333984 A 1.000544 1.000544 0 1 0 27.974609 22.673828 C 28.466918 22.126933 28.80474 21.43756 28.935547 20.681641 C 29.590249 20.88384 30.281463 21 31 21 C 34.854334 21 38 17.854334 38 14 C 38 10.145666 34.854334 7 31 7 C 28.396945 7 26.205912 8.4963898 25 10.615234 C 23.794088 8.4963898 21.603055 7 19 7 z M 19 9 C 21.773666 9 24 11.226334 24 14 C 24 14.850779 23.78025 15.638968 23.408203 16.337891 C 22.485087 16.742948 21.742948 17.485087 21.337891 18.408203 C 20.639997 18.779864 19.850756 19 19 19 C 16.226334 19 14 16.773666 14 14 C 14 11.226334 16.226334 9 19 9 z M 31 9 C 33.773666 9 36 11.226334 36 14 C 36 16.773666 33.773666 19 31 19 C 30.149046 19 29.360601 18.779547 28.662109 18.408203 C 28.257052 17.485087 27.514913 16.742948 26.591797 16.337891 C 26.220065 15.639539 26 14.851162 26 14 C 26 11.226334 28.226334 9 31 9 z M 20 12 A 2 2 0 0 0 20 16 A 2 2 0 0 0 20 12 z M 30 12 A 2 2 0 0 0 30 16 A 2 2 0 0 0 30 12 z M 38.25 19.984375 A 1.0001 1.0001 0 0 0 37.488281 20.371094 C 35.13305 23.28273 31.575625 25 27.789062 25 L 27.167969 25 A 1.0001 1.0001 0 0 0 26.841797 25 L 25 25 L 23.167969 25 A 1.0001 1.0001 0 0 0 22.841797 25 L 22.210938 25 C 18.424374 25 14.867842 23.282562 12.513672 20.371094 A 1.0001 1.0001 0 0 0 11.732422 19.988281 A 1.0001 1.0001 0 0 0 10.958984 21.628906 C 12.785345 23.887618 15.263663 25.454407 18 26.292969 L 18 30 A 1.0001 1.0001 0 0 0 19 31 L 23 31 A 1.0001 1.0001 0 0 0 24 30 L 24 27 L 25 27 L 26 27 L 26 30 A 1.0001 1.0001 0 0 0 27 31 L 31 31 A 1.0001 1.0001 0 0 0 32 30 L 32 26.292969 C 34.736388 25.454414 37.21598 23.887506 39.042969 21.628906 A 1.0001 1.0001 0 0 0 38.25 19.984375 z M 20 26.751953 C 20.661414 26.854984 21.320883 26.966497 22 26.976562 L 22 29 L 20 29 L 20 26.751953 z M 30 26.751953 L 30 29 L 28 29 L 28 26.976562 C 28.679117 26.966493 29.338584 26.854984 30 26.751953 z M 15.414062 35 L 22.587891 35 L 21.390625 36.195312 A 1.0001 1.0001 0 0 0 21.164062 36.421875 L 19 38.585938 L 15.414062 35 z M 27.414062 35 L 34.585938 35 L 31 38.585938 L 27.414062 35 z M 25 35.414062 L 26.576172 36.990234 L 25.582031 38 L 24.408203 38 L 23.402344 37.011719 L 25 35.414062 z M 24.617188 40 L 25.382812 40 L 26.830078 42.894531 L 25 45.333984 L 23.169922 42.894531 L 24.617188 40 z"/></svg>
